<svg width="179" height="20" viewBox="0 0 179 20" fill="none" xmlns="http://www.w3.org/2000/svg">
<path d="M126.185 0H121.427V20H126.185V0Z" fill="#040628"/>
<path d="M113.192 0H94.9434V20H99.702V4.18397H112.601C113.087 4.20599 113.546 4.41413 113.882 4.7651C114.218 5.11607 114.405 5.58285 114.405 6.06831C114.405 6.55377 114.218 7.02055 113.882 7.37152C113.546 7.72249 113.087 7.93063 112.601 7.95265H106.303C105.185 7.98592 104.115 8.41953 103.29 9.17439C102.465 9.92924 101.939 10.955 101.809 12.0647C101.678 13.1743 101.952 14.2938 102.579 15.219C103.206 16.1442 104.146 16.8134 105.226 17.1046L117.383 20V15.8083L106.377 13.1962C106.236 13.1632 106.112 13.0794 106.028 12.9609C105.945 12.8423 105.908 12.6973 105.925 12.5534C105.942 12.4095 106.011 12.2768 106.119 12.1806C106.228 12.0845 106.368 12.0315 106.513 12.0318H113.192C113.983 12.0318 114.767 11.8762 115.498 11.5738C116.229 11.2714 116.893 10.8283 117.452 10.2696C118.011 9.71089 118.455 9.04767 118.757 8.31781C119.059 7.58795 119.215 6.80575 119.214 6.01591C119.215 5.22608 119.059 4.44388 118.757 3.71402C118.455 2.98415 118.011 2.32094 117.452 1.76226C116.893 1.20358 116.229 0.760385 115.498 0.45801C114.767 0.155634 113.983 -1.64591e-07 113.192 0V0Z" fill="#040628"/>
<path d="M147.276 0L140.698 19.7632L134.116 0H128.393L135.652 20H140.616H140.776H145.74L152.999 0H147.276Z" fill="#040628"/>
<path d="M159.635 15.8898V12.0551H178.448V7.94489H159.635V4.11023H178.448V0H159.635H154.877V4.11023V7.94489V12.0551V15.8898V20H159.635H178.448V15.8898H159.635Z" fill="#040628"/>
<path d="M86.6317 0H68.3983V20H86.6317C87.424 20 88.2086 19.844 88.9404 19.541C89.6723 19.2379 90.3371 18.7937 90.8968 18.2339C91.4565 17.674 91.9002 17.0094 92.2023 16.2782C92.5044 15.547 92.6592 14.7634 92.6576 13.9724V6.01203C92.6566 4.41718 92.0213 2.88801 90.8913 1.76065C89.7613 0.633284 88.2292 -3.31914e-07 86.6317 0V0ZM87.9302 9.99806V13.9297C87.9302 14.429 87.7315 14.9078 87.3779 15.2608C87.0243 15.6138 86.5447 15.8121 86.0446 15.8121H73.1452V4.16845H86.0446C86.5447 4.16845 87.0243 4.36677 87.3779 4.71979C87.7315 5.07281 87.9302 5.5516 87.9302 6.05084V9.99806Z" fill="#040628"/>
<path d="M68.5921 0H-95.3847V20H68.5921V0Z" fill="#003FFF"/>
<path d="M23.8151 13.3836H19.5793L18.8309 15.3231H15.0091L19.8819 4.19482H23.5762L28.449 15.3231H24.5635L23.8151 13.3836ZM22.78 10.681L21.6972 7.88305L20.6144 10.681H22.78Z" fill="white"/>
<path d="M38.8898 12.4139V15.3231H28.6507V13.018L33.7464 7.10407H28.8099V4.19482H38.6351V6.49997L33.5394 12.4139H38.8898Z" fill="white"/>
<path d="M45.3156 15.5775C43.6064 15.5775 42.2741 15.1164 41.3186 14.1944C40.3632 13.2723 39.8855 11.9793 39.8855 10.3154V4.19482H43.6435V10.2041C43.6435 11.0202 43.7869 11.6137 44.0735 11.9846C44.3707 12.3556 44.7954 12.541 45.3474 12.541C45.8995 12.541 46.3188 12.3556 46.6054 11.9846C46.9027 11.6137 47.0513 11.0202 47.0513 10.2041V4.19482H50.7457V10.3154C50.7457 11.9793 50.268 13.2723 49.3125 14.1944C48.3571 15.1164 47.0248 15.5775 45.3156 15.5775Z" fill="white"/>
<path d="M57.2456 12.5251H56.2264V15.3231H52.4683V4.19482H57.8348C58.8645 4.19482 59.7616 4.3644 60.5259 4.70355C61.2903 5.04269 61.8795 5.53022 62.2935 6.16612C62.7075 6.80202 62.9145 7.54391 62.9145 8.39178C62.9145 9.18665 62.7341 9.88084 62.3731 10.4744C62.0122 11.0679 61.492 11.5395 60.8126 11.8892L63.1534 15.3231H59.1405L57.2456 12.5251ZM59.1246 8.39178C59.1246 7.97844 58.9972 7.66049 58.7424 7.43792C58.4876 7.20476 58.1055 7.08818 57.5959 7.08818H56.2264V9.69537H57.5959C58.1055 9.69537 58.4876 9.58409 58.7424 9.36153C58.9972 9.12836 59.1246 8.80511 59.1246 8.39178Z" fill="white"/>
</svg>
